HIERARCHY
ROOT Hips
{
	OFFSET 0.000000 0.000000 0.000000
	CHANNELS 6 Xposition Yposition Zposition Zrotation Yrotation Xrotation 
	JOINT LHipJoint
	{
		OFFSET 0.000000 0.000000 0.000000
		CHANNELS 3 Zrotation Yrotation Xrotation
		JOINT LeftUpLeg
		{
			OFFSET 1.363060 -1.794630 0.839290
			CHANNELS 3 Zrotation Yrotation Xrotation
			JOINT LeftLeg
			{
				OFFSET 2.448110 -6.726130 0.000000
				CHANNELS 3 Zrotation Yrotation Xrotation
				JOINT LeftFoot
				{
					OFFSET 2.562200 -7.039590 0.000000
					CHANNELS 3 Zrotation Yrotation Xrotation
					JOINT LeftToeBase
					{
						OFFSET 0.157640 -0.433110 2.322550
						CHANNELS 3 Zrotation Yrotation Xrotation
						End Site
						{
							OFFSET 0.000000 0.000000 0.000000
						}
					}
				}
			}
		}
	}
	JOINT RHipJoint
	{
		OFFSET 0.000000 0.000000 0.000000
		CHANNELS 3 Zrotation Yrotation Xrotation
		JOINT RightUpLeg
		{
			OFFSET -1.305520 -1.794630 0.839290
			CHANNELS 3 Zrotation Yrotation Xrotation
			JOINT RightLeg
			{
				OFFSET -2.542530 -6.985550 0.000000
				CHANNELS 3 Zrotation Yrotation Xrotation
				JOINT RightFoot
				{
					OFFSET -2.568260 -7.056230 0.000000
					CHANNELS 3 Zrotation Yrotation Xrotation
					JOINT RightToeBase
					{
						OFFSET -0.164730 -0.452590 2.363150
						CHANNELS 3 Zrotation Yrotation Xrotation
						End Site
						{
							OFFSET 0.000000 0.000000 0.000000
						}
					}
				}
			}
		}
	}
	JOINT LowerBack
	{
		OFFSET 0.000000 0.000000 0.000000
		CHANNELS 3 Zrotation Yrotation Xrotation
		JOINT Spine
		{
			OFFSET 0.028270 2.035590 -0.193380
			CHANNELS 3 Zrotation Yrotation Xrotation
			JOINT Spine1
			{
				OFFSET 0.056720 2.048850 -0.042750
				CHANNELS 3 Zrotation Yrotation Xrotation
				JOINT Neck
				{
					OFFSET 0.000000 0.000000 0.000000
					CHANNELS 3 Zrotation Yrotation Xrotation
					JOINT Neck1
					{
						OFFSET -0.054170 1.746240 0.172020
						CHANNELS 3 Zrotation Yrotation Xrotation
						JOINT Head
						{
							OFFSET 0.104070 1.761360 -0.123970
							CHANNELS 3 Zrotation Yrotation Xrotation
							End Site
							{
								OFFSET 0.000000 0.000000 0.000000
							}
						}
					}
				}
				JOINT LeftShoulder
				{
					OFFSET 0.000000 0.000000 0.000000
					CHANNELS 3 Zrotation Yrotation Xrotation
					JOINT LeftArm
					{
						OFFSET 3.362410 1.200890 -0.311210
						CHANNELS 3 Zrotation Yrotation Xrotation
						JOINT LeftForeArm
						{
							OFFSET 4.983000 -0.000000 -0.000000
							CHANNELS 3 Zrotation Yrotation Xrotation
							JOINT LeftHand
							{
								OFFSET 3.483560 -0.000000 -0.000000
								CHANNELS 3 Zrotation Yrotation Xrotation
								JOINT LeftFingerBase
								{
									OFFSET 0.000000 0.000000 0.000000
									CHANNELS 3 Zrotation Yrotation Xrotation
									JOINT LeftHandIndex1
									{
										OFFSET 0.715260 -0.000000 -0.000000
										CHANNELS 3 Zrotation Yrotation Xrotation
										End Site
										{
											OFFSET 0.000000 0.000000 0.000000
										}
									}
								}
								JOINT LThumb
								{
									OFFSET 0.000000 0.000000 0.000000
									CHANNELS 3 Zrotation Yrotation Xrotation
									End Site
									{
										OFFSET 0.000000 0.000000 0.000000
									}
								}
							}
						}
					}
				}
				JOINT RightShoulder
				{
					OFFSET 0.000000 0.000000 0.000000
					CHANNELS 3 Zrotation Yrotation Xrotation
					JOINT RightArm
					{
						OFFSET -3.136600 1.374050 -0.404650
						CHANNELS 3 Zrotation Yrotation Xrotation
						JOINT RightForeArm
						{
							OFFSET -5.241900 -0.000000 -0.000000
							CHANNELS 3 Zrotation Yrotation Xrotation
							JOINT RightHand
							{
								OFFSET -3.444170 -0.000000 -0.000000
								CHANNELS 3 Zrotation Yrotation Xrotation
								JOINT RightFingerBase
								{
									OFFSET 0.000000 0.000000 0.000000
									CHANNELS 3 Zrotation Yrotation Xrotation
									JOINT RightHandIndex1
									{
										OFFSET -0.622530 -0.000000 -0.000000
										CHANNELS 3 Zrotation Yrotation Xrotation
										End Site
										{
											OFFSET 0.000000 0.000000 0.000000
										}
									}
								}
								JOINT RThumb
								{
									OFFSET 0.000000 0.000000 0.000000
									CHANNELS 3 Zrotation Yrotation Xrotation
									End Site
									{
										OFFSET 0.000000 0.000000 0.000000
									}
								}
							}
						}
					}
				}
			}
		}
	}
}
MOTION
Frames: 6
Frame Time: 0.033333
1.275421 17.546729 4.125363 -1.374487 -3.538231 10.577252 -14.688271 5.293944 10.462878 -6.692452 0.711005 -12.915148 -1.148115 -1.351554 -0.206143 1.139598 3.434903 -1.307439 -1.364592 0.182443 -31.483582 9.697639 0.489325 10.003619 5.953831 -1.242642 -56.504926 -1.910162 -4.169622 53.674223 -2.712283 -9.618236 -13.756106 -0.048012 -0.084556 -42.839438 3.483798 -1.539658 1.884616 -0.279830 -3.256970 -4.390602 -7.785715 -3.788927 0.793382 11.310568 -7.419929 -6.647458 -3.664751 -0.344846 0.259326 -0.020992 0.045181 0.023624 -5.607725 -2.273845 1.628689 -58.372094 -21.367099 6.978817 -1.216786 -26.075073 -0.912900 15.911263 -3.307046 -0.506897 -0.312098 0.421569 0.014119 -0.053624 -0.019564 -0.037057 0.030752 0.109041 -0.030350 19.894679 -7.511369 0.910968 59.891570 4.180492 -16.458717 2.464638 13.401318 -0.120893 -6.052015 7.109337 -0.433825 0.212582 0.078861 -0.002880 0.091345 -0.014894 -0.055654 0.008705 0.042059 0.040717 
1.204753 17.550370 4.587604 -1.565197 -3.970759 10.241651 -15.242654 6.073011 10.632389 -5.620437 1.979268 -10.697427 -1.355085 -2.806344 -1.453499 0.905874 4.276610 -0.450185 -0.960308 0.121699 -35.270186 9.275785 0.371190 11.000720 5.918793 0.949608 -55.285273 -1.052957 -4.076151 45.442003 -2.681140 -6.868072 -14.053724 0.345741 -0.097331 -45.254856 3.472949 -2.386798 2.151227 -0.627661 -3.817700 -4.303297 -7.248201 -4.818722 0.164787 10.814209 -7.676850 -6.353671 -3.515008 -0.328891 0.389730 -0.020468 0.035175 0.026796 -4.193976 -3.933252 1.012326 -55.272761 -25.288197 5.046137 -1.579100 -26.511100 -0.694133 15.922505 -3.733040 -0.561599 -0.368387 0.423357 0.015174 -0.059204 -0.020143 -0.037449 0.026246 0.112209 -0.027438 19.105980 -6.413101 -1.746775 61.142854 3.280176 -16.915291 2.570475 13.469789 -0.096251 -5.683545 7.157777 -0.414586 0.241181 0.017489 -0.009520 0.083874 -0.014199 -0.049488 -0.002535 0.059101 0.042992 
1.118629 17.539441 5.044938 -1.120413 -3.796044 9.884454 -16.133746 6.589276 10.423267 -3.870989 2.160201 -7.740175 -2.534163 -3.217739 -2.787494 0.720020 4.843107 0.648783 -0.377803 0.106007 -39.164227 8.623366 0.236447 10.591518 5.646299 2.419906 -51.998757 0.080167 -3.390670 35.622101 -2.396496 -4.432617 -11.643401 0.533297 -0.067606 -48.859079 2.757869 -2.798228 2.220273 -0.137749 -4.495147 -4.286735 -7.207280 -5.673387 0.174817 10.011936 -8.098473 -6.135078 -3.397729 -0.315746 0.560400 -0.017408 0.028061 0.032644 -2.783392 -4.636144 0.850199 -51.745157 -28.641855 3.392646 -1.666075 -28.635090 -0.856793 15.495347 -3.836923 -0.573584 -0.398065 0.440075 0.018741 -0.067607 -0.017154 -0.037584 0.016295 0.114562 -0.025582 17.690843 -6.761760 -3.913667 62.899554 2.664365 -16.786435 3.043545 15.255660 0.024747 -5.268081 6.983405 -0.390393 0.223197 -0.006781 -0.021188 0.073222 -0.013206 -0.038973 -0.009566 0.070422 0.039663 
1.025102 17.518664 5.527411 -1.037818 -3.845036 10.303073 -16.712853 7.176525 9.668794 -2.511416 2.962152 -5.326564 -3.254528 -3.985744 -3.861361 0.508394 5.169584 2.085188 0.254371 0.078659 -43.404676 8.509549 0.437375 9.947481 4.878362 3.171718 -48.067579 1.996862 -2.329434 23.642687 -1.954581 -1.431270 -7.576100 0.736372 -0.030725 -52.274237 2.107518 -1.800679 0.980883 -0.336344 -4.871194 -3.954945 -6.520007 -7.027819 0.326729 9.153578 -8.599443 -5.899971 -3.455428 -0.317888 0.665200 -0.018071 0.018203 0.034397 -1.597391 -5.912996 0.610034 -48.532989 -30.402909 2.188586 -2.315775 -32.540741 -0.178774 14.897026 -3.957717 -0.566154 -0.427187 0.469981 0.016128 -0.079673 -0.014982 -0.035855 0.008976 0.114137 -0.024605 16.426581 -7.627018 -5.312275 64.825723 2.071286 -16.211095 3.520264 17.668515 0.259386 -4.688851 6.932993 -0.352030 0.234003 -0.066995 -0.031190 0.065408 -0.013853 -0.035332 -0.017891 0.085280 0.034409 
0.931947 17.497315 6.059027 -0.513977 -3.295196 10.322051 -17.015779 7.232668 9.008753 -1.146202 3.618910 -2.953711 -4.939297 -4.567800 -3.420350 0.611189 5.550393 3.821574 0.944913 0.111330 -47.044846 8.171019 0.512075 8.606768 4.823410 2.989194 -42.395241 2.845941 0.035565 11.904345 -1.196424 0.487908 -2.006096 0.775893 0.007885 -54.923347 0.756174 -1.369715 0.296484 0.647310 -5.810555 -4.105370 -5.888965 -7.805506 0.169198 8.022954 -9.196358 -5.738505 -3.521844 -0.333637 0.715314 -0.017543 0.010790 0.035039 -0.303963 -5.701708 0.574030 -46.885082 -32.198197 3.633069 -2.558255 -37.541557 0.349240 13.934600 -4.073790 -0.562146 -0.421087 0.514305 0.013916 -0.090528 -0.012635 -0.033098 0.004926 0.111444 -0.020408 14.738765 -9.427646 -5.817166 66.472090 1.045883 -15.674429 4.358546 21.269538 0.838759 -4.150442 6.951841 -0.330248 0.211385 -0.098121 -0.040982 0.063961 -0.014562 -0.036376 -0.018377 0.089510 0.029422 
0.838026 17.476266 6.641301 -0.195114 -3.126408 10.567040 -17.759454 8.013110 8.117682 0.309342 4.051959 -1.513148 -5.627594 -4.557931 -1.721647 0.706009 5.540687 5.343325 1.430076 0.155820 -49.995853 8.776972 0.808193 6.652318 4.189093 2.500821 -37.076661 3.984310 1.149385 2.785704 -0.583450 1.680688 3.267798 0.854977 0.022930 -56.037630 0.415817 -1.407008 -1.348872 0.128996 -5.970985 -4.041985 -5.523671 -8.082869 0.548811 6.889737 -9.566689 -5.224612 -3.806724 -0.358123 0.898870 -0.015949 0.003243 0.032646 0.078865 -5.950145 0.611801 -45.990248 -32.143045 5.532856 -2.668692 -42.639003 0.724956 13.032460 -4.145415 -0.538798 -0.421326 0.505028 0.013465 -0.101999 -0.008448 -0.030599 -0.004253 0.106196 -0.017222 14.061065 -10.837199 -6.186777 67.824827 0.336150 -14.769100 4.669848 24.432994 1.065556 -3.761626 7.043134 -0.317292 0.229201 -0.125533 -0.050035 0.059877 -0.014539 -0.035338 -0.020725 0.100104 0.024618 
